<?xml version="1.0" encoding="UTF-8" standalone="no"?>
<!-- Created with Inkscape (http://www.inkscape.org/) -->

<svg
   xmlns:dc="http://purl.org/dc/elements/1.1/"
   xmlns:cc="http://creativecommons.org/ns#"
   xmlns:rdf="http://www.w3.org/1999/02/22-rdf-syntax-ns#"
   xmlns:svg="http://www.w3.org/2000/svg"
   xmlns="http://www.w3.org/2000/svg"
   xmlns:sodipodi="http://sodipodi.sourceforge.net/DTD/sodipodi-0.dtd"
   xmlns:inkscape="http://www.inkscape.org/namespaces/inkscape"
   width="55.428719mm"
   height="55.428719mm"
   viewBox="0 0 55.428719 55.428719"
   version="1.1"
   id="svg8"
   inkscape:version="0.92.5 (2060ec1f9f, 2020-04-08)"
   sodipodi:docname="ukr.svg">
  <defs
     id="defs2" />
  <sodipodi:namedview
     id="base"
     pagecolor="#ffffff"
     bordercolor="#666666"
     borderopacity="1.0"
     inkscape:pageopacity="0.0"
     inkscape:pageshadow="2"
     inkscape:zoom="0.98994949"
     inkscape:cx="192.90281"
     inkscape:cy="230.46187"
     inkscape:document-units="mm"
     inkscape:current-layer="layer1"
     showgrid="false"
     inkscape:window-width="1528"
     inkscape:window-height="836"
     inkscape:window-x="72"
     inkscape:window-y="27"
     inkscape:window-maximized="1"
     fit-margin-top="0"
     fit-margin-left="0"
     fit-margin-right="0"
     fit-margin-bottom="0" />
  <metadata
     id="metadata5">
    <rdf:RDF>
      <cc:Work
         rdf:about="">
        <dc:format>image/svg+xml</dc:format>
        <dc:type
           rdf:resource="http://purl.org/dc/dcmitype/StillImage" />
        <dc:title></dc:title>
      </cc:Work>
    </rdf:RDF>
  </metadata>
  <g
     inkscape:label="Layer 1"
     inkscape:groupmode="layer"
     id="layer1"
     transform="translate(-29.737948,-154.38098)">
    <path
       style="fill:#ffcc00;stroke:#000000;stroke-width:3.77952766;stroke-miterlimit:4;stroke-dasharray:none;stroke-opacity:1"
       d="m 204.55664,602.29102 v 71.33203 l -58.44922,58.44726 18.57227,18.57227 39.87695,-39.87891 v 52.64649 h 26.26367 v -53.40235 l 39.40235,39.40235 18.57031,-18.57032 -57.97266,-57.97265 v -70.57617 z"
       transform="scale(0.26458333)"
       id="rect27"
       inkscape:export-xdpi="96"
       inkscape:export-ydpi="96"
       inkscape:connector-curvature="0" />
    <path
       style="fill:#0000ff;stroke:#000002;stroke-width:3.77952766;stroke-miterlimit:4;stroke-dasharray:none;stroke-opacity:1"
       d="M 217.14258,585.37695 A 102.85714,102.85714 0 0 0 114.28516,688.23438 102.85714,102.85714 0 0 0 217.14258,791.0918 102.85714,102.85714 0 0 0 320,688.23438 102.85714,102.85714 0 0 0 217.14258,585.37695 Z m 0,34.28516 a 68.571427,68.571427 0 0 1 68.57226,68.57227 68.571427,68.571427 0 0 1 -68.57226,68.57031 68.571427,68.571427 0 0 1 -68.57031,-68.57031 68.571427,68.571427 0 0 1 68.57031,-68.57227 z"
       transform="scale(0.26458333)"
       id="path18"
       inkscape:export-xdpi="96"
       inkscape:export-ydpi="96"
       inkscape:connector-curvature="0" />
  </g>
</svg>
